<svg width="24" height="21" viewBox="0 0 24 21" fill="none" xmlns="http://www.w3.org/2000/svg">
    <path d="M4.48318 7H19.5168C21.3086 7 22.7009 8.56043 22.4974 10.3406L21.6974 17.3406C21.5243 18.8558 20.2419 20 18.7168 20H5.28318C3.75813 20 2.47575 18.8558 2.30258 17.3406L1.50258 10.3406C1.29913 8.56043 2.69138 7 4.48318 7Z" stroke="#112A46" stroke-width="2"/>
    <path fill-rule="evenodd" clip-rule="evenodd" d="M10.3114 4L9.73373 3.00145C9.3849 2.39843 8.73783 2 8.00007 2H5.71436C4.60979 2 3.71436 2.89543 3.71436 4V6V7H1.71436V6V4C1.71436 1.79086 3.50522 0 5.71436 0H8.00007C9.48063 0 10.7733 0.804397 11.4649 2H18.2858C20.4949 2 22.2858 3.79086 22.2858 6V7H20.2858V6C20.2858 4.89543 19.3904 4 18.2858 4H11.4649H10.3114Z" fill="#112A46"/>
</svg>